<?xml version="1.0" encoding="utf-8"?>
<!-- Generator: Adobe Illustrator 15.0.0, SVG Export Plug-In . SVG Version: 6.00 Build 0)  -->
<!DOCTYPE svg PUBLIC "-//W3C//DTD SVG 1.1//EN" "http://www.w3.org/Graphics/SVG/1.1/DTD/svg11.dtd">
<svg version="1.1" id="Teamlyzer" xmlns="http://www.w3.org/2000/svg" xmlns:xlink="http://www.w3.org/1999/xlink" x="0px" y="0px"
	 width="100px" height="24px" viewBox="0 0 100 24" enable-background="new 0 0 100 24" xml:space="preserve">
<g>
	<rect y="1.468" fill="none" width="288.895" height="107.438"/>
	<path fill="#25343F" d="M12.307,1.467v1.739H7.585v14.805H5.727V3.206H1.004V1.467H12.307z"/>
	<path fill="#25343F" d="M19.317,16.521c1.08,0,2.16-0.249,3.064-0.721l0.729,1.49c-1.181,0.597-2.487,0.87-3.792,0.87
		c-1.733,0-3.115-0.621-3.918-1.689c-0.954-1.292-0.954-2.782-0.954-4.397c0-1.937,0-3.08,0.904-4.321
		c0.804-1.118,2.311-1.764,4.094-1.764c1.256,0,2.26,0.323,3.014,0.919c0.753,0.621,1.231,1.54,1.256,2.509
		c0,1.093-0.553,1.938-1.256,2.435c-1.055,0.745-2.135,0.745-3.918,0.745h-2.311c0,0.646,0,2.111,0.578,2.881
		C17.308,16.147,18.112,16.521,19.317,16.521z M21.301,8.149c-0.427-0.348-1.08-0.522-1.858-0.522c-1.13,0-2.035,0.323-2.587,0.969
		c-0.628,0.721-0.628,1.963-0.628,2.459h2.311c1.583,0,2.286,0,2.813-0.397c0.327-0.249,0.603-0.671,0.603-1.242
		C21.929,8.944,21.678,8.447,21.301,8.149z"/>
	<path fill="#25343F" d="M33.585,16.868c-0.753,0.869-1.934,1.292-3.441,1.292c-1.205,0-2.235-0.249-3.039-0.82
		c-0.829-0.571-1.507-1.564-1.507-2.856c0-1.316,0.678-2.285,1.482-2.856c1.181-0.845,2.587-0.845,3.566-0.845h2.06
		c0-0.77,0-1.764-0.603-2.434c-0.427-0.472-1.08-0.721-2.035-0.721c-1.105,0-2.21,0.249-3.265,0.646l-0.552-1.565
		c1.18-0.422,2.461-0.721,3.817-0.721c1.507,0,2.637,0.472,3.391,1.317c1.005,1.118,1.005,2.583,1.005,3.9v1.837
		C34.464,14.707,34.464,15.85,33.585,16.868z M32.706,12.322h-2.06c-0.854,0-1.758,0-2.461,0.497
		c-0.452,0.322-0.829,0.894-0.829,1.664c0,0.695,0.352,1.242,0.804,1.564c0.477,0.323,1.18,0.473,1.984,0.473
		c0.93,0,1.658-0.199,2.085-0.695c0.477-0.547,0.477-1.317,0.477-2.783V12.322z"/>
	<path fill="#25343F" d="M44.513,7.727c0.678-1.118,1.833-1.739,3.265-1.739c1.181,0,2.21,0.422,2.889,1.068
		c1.256,1.192,1.256,2.732,1.256,4.596v6.359h-1.759v-6.359c0-1.64,0-2.757-0.754-3.453c-0.376-0.348-0.954-0.571-1.632-0.571
		s-1.256,0.224-1.632,0.571c-0.754,0.696-0.754,1.813-0.754,3.453v6.359h-1.758v-6.359c0-1.64,0-2.757-0.753-3.453
		c-0.377-0.348-0.955-0.571-1.633-0.571s-1.256,0.224-1.632,0.571c-0.753,0.696-0.753,1.813-0.753,3.453v6.359h-1.758v-6.359
		c0-1.863,0-3.403,1.256-4.596c0.678-0.646,1.708-1.068,2.888-1.068C42.679,5.988,43.834,6.609,44.513,7.727z"/>
	<path fill="#25343F" d="M56.698,1.442v16.569H54.94V1.442H56.698z"/>
	<path fill="#25343F" d="M60.542,6.137l2.361,7.999c0.377,1.291,0.553,1.838,0.703,2.062s0.401,0.273,0.653,0.298l2.26-10.358h1.809
		l-2.889,12.892c-0.275,1.217-0.477,1.987-1.029,2.608c-0.527,0.596-1.382,1.068-2.437,1.068c-0.553,0-1.13-0.125-1.683-0.323
		l0.527-1.54c0.402,0.148,0.778,0.224,1.155,0.224c0.478,0,0.804-0.149,1.08-0.423c0.352-0.348,0.503-0.919,0.854-2.533
		c-0.704-0.1-1.281-0.423-1.633-0.87c-0.377-0.496-0.478-0.943-1.03-2.732l-2.536-8.371H60.542z"/>
	<path fill="#25343F" d="M70.265,6.137h4.822c0.653,0,1.406,0,2.16,0.596c0.577,0.447,0.854,1.093,0.854,1.739
		c0,1.217-0.854,1.962-2.109,2.981l-2.813,2.31c-1.155,0.944-1.708,1.392-1.708,1.913c0,0.224,0.101,0.397,0.227,0.497
		c0.251,0.198,0.703,0.198,1.783,0.198h4.571v1.64h-4.571c-1.331,0-2.486,0-3.265-0.919c-0.327-0.397-0.503-0.895-0.503-1.416
		c0-1.242,0.854-1.913,2.336-3.155l2.788-2.31c1.005-0.82,1.507-1.217,1.507-1.739c0-0.298-0.15-0.447-0.302-0.546
		c-0.226-0.149-0.703-0.149-0.954-0.149h-4.822V6.137z"/>
	<path fill="#25343F" d="M85.235,16.521c1.08,0,2.16-0.249,3.063-0.721l0.729,1.49c-1.18,0.597-2.486,0.87-3.792,0.87
		c-1.733,0-3.114-0.621-3.918-1.689c-0.955-1.292-0.955-2.782-0.955-4.397c0-1.937,0-3.08,0.904-4.321
		c0.804-1.118,2.311-1.764,4.094-1.764c1.256,0,2.261,0.323,3.015,0.919c0.753,0.621,1.23,1.54,1.256,2.509
		c0,1.093-0.553,1.938-1.256,2.435c-1.056,0.745-2.135,0.745-3.918,0.745h-2.312c0,0.646,0,2.111,0.578,2.881
		C83.226,16.147,84.029,16.521,85.235,16.521z M87.22,8.149c-0.428-0.348-1.08-0.522-1.859-0.522c-1.13,0-2.034,0.323-2.587,0.969
		c-0.628,0.721-0.628,1.963-0.628,2.459h2.312c1.582,0,2.285,0,2.813-0.397c0.326-0.249,0.603-0.671,0.603-1.242
		C87.848,8.944,87.596,8.447,87.22,8.149z"/>
	<path fill="#25343F" d="M98.323,6.261l-0.527,1.565c-0.352-0.124-0.754-0.199-1.181-0.199c-0.904,0-1.758,0.323-2.235,0.895
		c-0.603,0.695-0.603,1.739-0.603,3.304v6.185H92.02v-6.185c0-2.012,0-3.18,1.004-4.347c0.979-1.143,2.437-1.491,3.592-1.491
		C97.243,5.988,97.821,6.087,98.323,6.261z"/>
</g>
</svg>
